<svg width="50" height="50" viewBox="0 0 50 50" fill="none" xmlns="http://www.w3.org/2000/svg">
<path d="M40.8621 40.8276C37.2759 38.4828 32.2414 35.2069 29.7586 33.5862L25.1724 30.6207L13.5862 37.4138C6.65517 41.4828 1.89655 44.1034 1.68965 43.8965C1.51724 43.7241 6.27586 35.7241 13.5172 24.0345C25 5.51724 25.6897 4.48275 26.2069 5.06896C27.1724 6.10344 48.3103 44.5172 48.069 44.8621C47.9655 45.0345 47.7931 45.1724 47.6552 45.1724C47.5172 45.1724 44.4828 43.2069 40.8621 40.8276ZM30.6207 22.6896C27.9655 17.8965 25.7586 13.931 25.6897 13.8621C25.6207 13.7931 23.931 16.4483 21.8621 19.7241C19.8276 23 17.4138 26.8965 16.4828 28.3793C15.4483 30.069 15.0345 30.9655 15.4138 30.7586C15.7586 30.5517 18.0345 29.2414 20.4483 27.7931C22.8966 26.3448 25.069 25.1724 25.2759 25.1724C25.5172 25.1724 27.7931 26.5517 30.3448 28.2414C32.8966 29.931 35.1034 31.3448 35.2414 31.3448C35.3448 31.3793 33.2759 27.4483 30.6207 22.6896Z" fill="black"/>
</svg>
