<svg width="50" height="50" viewBox="0 0 50 50" fill="none" xmlns="http://www.w3.org/2000/svg">
<g clip-path="url(#clip0_13_21)">
<path d="M21.5517 46.6552C20.0345 45.0345 18.1724 43.4138 17.4483 43.0345C16.6896 42.6552 15.2759 41.7931 14.2759 41.1379L12.4827 39.931L10.4827 41.2759C9.41378 42 8.31034 42.7241 8.06896 42.931C7.75861 43.1379 7.48275 43.1379 7.20689 42.8621C6.93103 42.5862 7.10344 42.069 7.96551 40.8621C10.3448 37.5517 10.3103 38 8.51723 35.1034C7.62068 33.6896 6.89654 32.3793 6.89654 32.2069C6.89654 32 5.41378 30.4138 3.62068 28.6552C1.82758 26.8621 0.344818 25.2414 0.344818 25C0.344818 24.7586 1.82758 23.1379 3.62068 21.3448C5.41378 19.5862 6.89654 17.9655 6.89654 17.7586C6.89654 17.5172 7.5862 16.2759 8.44827 14.9655C9.27585 13.6552 9.99999 12.4138 9.99999 12.2069C9.99999 12.0345 9.27585 10.8965 8.41378 9.68965C7.1724 8.06896 6.89654 7.44827 7.20689 7.13792C7.48275 6.86206 7.75861 6.86206 8.06896 7.06896C8.31034 7.27585 9.41378 7.99999 10.4827 8.72413L12.4827 10.069L14.2759 8.86206C15.2759 8.20689 16.6896 7.34482 17.4483 6.96551C18.1724 6.5862 20.1034 4.93103 21.6896 3.31034C23.2759 1.68965 24.7586 0.344818 25.0345 0.344818C25.2759 0.344818 26.7586 1.62068 28.3448 3.20689C29.9655 4.86206 32.1034 6.5862 33.2759 7.20689C34.4138 7.82758 35.8621 8.72413 36.4483 9.20689C37.7241 10.1379 37.931 10.069 40.7241 8.06896C41.6207 7.41378 42.4827 6.89654 42.6896 6.89654C43.6207 6.89654 43.3448 7.75861 41.7241 9.86206C40.7586 11.1034 40 12.2414 40.069 12.3793C40.1379 12.4827 40.8965 13.6896 41.8276 15.069C42.7241 16.4138 43.4483 17.7241 43.4483 17.9655C43.4483 18.2069 44.8621 19.7586 46.5517 21.4138C48.2759 23.0345 49.6552 24.6552 49.6552 25C49.6552 25.3448 48.3103 26.8965 46.6896 28.4828C44.8965 30.1724 43.4483 31.931 43.0345 32.7931C42.6896 33.5862 41.8621 35 41.1724 35.931C40.5172 36.8965 40.069 37.7931 40.2069 38.0345C40.3448 38.2759 41.1379 39.3448 41.9655 40.4483C43.3448 42.2414 43.5862 43.1034 42.7241 43.1034C42.5517 43.1034 41.6896 42.5862 40.7931 41.931C37.7586 39.7931 37.8965 39.7931 35.3103 41.5517C34.0345 42.4138 32.7586 43.1034 32.5172 43.1034C32.2759 43.1034 30.5517 44.5862 28.7586 46.3793C26.931 48.1724 25.1724 49.6207 24.8621 49.6207C24.5517 49.5862 23.069 48.2414 21.5517 46.6552ZM29.4483 39.7931C31.4483 39.2759 34.1379 38.0345 34.1379 37.6207C34.1379 37.5172 33.6207 37.069 33 36.6552C32.4138 36.2414 30.4138 34.8965 28.6207 33.6552C26.8276 32.4138 25.2414 31.3793 25.069 31.3793C24.6552 31.3793 16.2069 37.3448 16.2069 37.6552C16.2069 38.0345 18.1379 38.9655 20.3448 39.6897C22.7241 40.4828 26.6552 40.5172 29.4483 39.7931ZM13.3793 33.0345C13.7586 32.4138 15.1379 30.3448 16.4827 28.4483L18.8621 25L15.931 20.6896C14.3103 18.3103 12.8965 16.2414 12.7586 16.1034C12.3103 15.6207 10.7586 18.6207 10.2069 21.0345C9.24137 25.069 9.79309 29.6207 11.5862 32.6552C12.069 33.4828 12.4827 34.1379 12.5517 34.1379C12.6207 34.1379 13 33.6207 13.3793 33.0345ZM39.8276 29.8276C41.069 25.7931 40.4138 19.8965 38.4483 16.9655C37.8621 16.1034 37.5862 15.9655 37.3448 16.2759C36.1724 17.7586 31.6207 24.6896 31.6207 25C31.6207 25.3103 34.8965 30.2759 37.0345 33.1724L37.6896 34.1379L38.4483 33C38.8621 32.4138 39.4827 30.9655 39.8276 29.8276ZM29.8276 15.5172C32.2069 13.8965 34.1379 12.4827 34.1379 12.3793C34.1379 12.2759 33.5517 11.8621 32.8621 11.4827C29.3793 9.55172 24.2759 9.10344 20.1379 10.3793C17.7931 11.1034 16.2069 11.931 16.2069 12.4138C16.2069 12.5517 18 13.8965 20.1724 15.3793C22.3793 16.8276 24.2414 18.1724 24.3448 18.3448C24.6896 18.8965 25.4827 18.4828 29.8276 15.5172Z" fill="#050707"/>
</g>
<defs>
<clipPath id="clip0_13_21">
<rect width="50" height="50" fill="white"/>
</clipPath>
</defs>
</svg>
