<svg width="50" height="50" viewBox="0 0 50 50" fill="none" xmlns="http://www.w3.org/2000/svg">
<path d="M7.06895 42.7241C6.93102 42.5172 8.41378 40 10.3793 37.1379C12.3448 34.2414 15.0345 30.3103 16.3448 28.3793L18.7586 24.8276L16.3448 21.3103C15.0345 19.3448 12.3448 15.3793 10.3793 12.4828C7.99999 9.03448 6.89654 7.10344 7.10344 6.89655C7.34481 6.65517 8.34481 7.17241 10.0345 8.31034C11.4483 9.27586 15.3793 12 18.8276 14.3448L25.0345 18.5862L33.5517 12.7586C38.2414 9.55172 42.2069 6.86206 42.4138 6.72413C42.6207 6.62069 42.8621 6.72413 42.9655 7C43.069 7.27586 40.6552 11.069 37.3448 15.8965C34.1724 20.5172 31.5862 24.5517 31.5862 24.8276C31.5862 25.1034 34.2069 29.1379 37.3793 33.7586C40.6896 38.5862 43.069 42.3793 42.9655 42.6552C42.8621 42.931 42.6207 43.069 42.4138 42.931C42.2414 42.8276 38.2414 40.1034 33.5862 36.8965L25.069 31.069L22.9655 32.4828C21.7931 33.2759 18 35.8621 14.4827 38.2759C6.75861 43.5517 7.34481 43.2069 7.06895 42.7241Z" fill="#040707"/>
</svg>
