<svg width="50" height="50" viewBox="0 0 50 50" fill="none" xmlns="http://www.w3.org/2000/svg">
<path d="M24.3793 47.2759C24.1035 45 22.6552 40.7586 21.3448 38.4138C20.2759 36.5172 20.2414 36.4828 19 36.7241C16.931 37.1035 12.7586 38.8966 10.5862 40.3448C7.58621 42.3793 7.31035 42.2414 9.10345 39.7586C10.6897 37.5172 11.8621 35.1035 12.7241 32.2414C13.4483 29.931 13.4483 29.8276 12.8621 29.3793C11.3103 28.1724 6.4138 26.1379 3.86207 25.5862C1.27587 25.069 0.137935 24.4828 1.65518 24.4828C3.24138 24.4828 8 23 10.6207 21.6552L13.5172 20.2414L13.2759 19C12.8621 16.7586 11.0345 12.6207 9.48276 10.3448C8.65518 9.10345 8.10345 8.06897 8.27587 8C8.44828 7.93104 9.55173 8.51724 10.6897 9.31035C13.1724 11 15.7241 12.1724 18.4138 12.8621L20.3448 13.3793L21.5517 11.2414C22.9655 8.72414 23.931 6 24.5172 3.10345C24.7241 1.96552 25.0345 1.03448 25.1724 1.03448C25.2759 1.03448 25.5862 2.06897 25.8276 3.34483C26.3448 6.10345 27.931 10.3793 29.1379 12.1379L30 13.3793L31.9655 12.8621C34.6207 12.1724 37.9655 10.6207 40.0345 9.13793C40.9655 8.48276 41.7931 7.93104 41.8966 7.93104C42.3103 7.93104 41.9655 8.75862 40.8966 10.2414C39.3103 12.4828 38.1379 14.8966 37.2759 17.7241C36.4138 20.5172 36.1379 20.1379 40.5172 22.2414C43.2414 23.5172 44.4138 23.8966 48.2069 24.6897C49.2759 24.8966 49.1379 25.5172 48 25.5172C46.2069 25.5172 42.9655 26.5517 39.7586 28.1035C36.5862 29.6552 36.5862 29.6897 36.7931 30.7931C37.2069 33 39 37.1724 40.5517 39.4483C41.4138 40.7586 42.0345 41.8621 41.931 41.9655C41.8276 42.069 40.6552 41.4138 39.2759 40.5172C36.8966 38.931 33.069 37.2069 30.7931 36.7241C29.7586 36.5172 29.6552 36.5862 28.4828 38.6897C27.2759 40.8276 25.7586 45.1035 25.3448 47.6897C25.069 49.4828 24.6207 49.2759 24.3793 47.2759ZM28.3103 31.4828C30.7931 30.2069 32.1379 28.2759 32.3448 25.6897C33 17.8621 23.069 14.5172 18.7241 21.1035C17.8966 22.3103 17.7586 22.8966 17.7586 24.8276C17.7586 27.931 19.0345 30.069 21.6897 31.4483C24.069 32.6897 25.8621 32.6897 28.3103 31.4828Z" fill="black"/>
</svg>
