<svg width="50" height="50" viewBox="0 0 50 50" fill="none" xmlns="http://www.w3.org/2000/svg">
<path d="M20.7931 46.069C18.3103 45.4483 15.5172 44.0345 13.6552 42.3793L12.069 40.9655H8.86207C5.96551 41 4.89655 41.1379 2.93103 41.931C2.51724 42.069 2.96551 41.4138 4.03448 40.2759C5 39.2414 6.27586 37.4483 6.86207 36.3104C7.86207 34.2759 7.89655 34.1379 7.68965 30.6552C7.34482 24.3448 8.93103 20 12.8965 16.2759C15.0345 14.2759 18.7931 12.069 20.0345 12.069C21.2759 12.069 24.7931 6.03449 24.8276 3.89656C24.8276 3.44828 25 3.10345 25.1724 3.10345C25.3793 3.10345 25.5172 3.4138 25.5172 3.79311C25.5172 5.72414 28.8276 11.6552 30.069 12C30.4483 12.069 31.8276 12.6897 33.1379 13.3104C40 16.5862 44.069 25.0345 42.3793 32.3793C42.069 33.7931 42.1379 34.1035 43.1034 36.1035C43.6897 37.2759 44.9655 39.1379 45.9655 40.2414C47.069 41.4138 47.4828 42.1035 47.069 41.931C45.3793 41.3104 42.8276 40.9655 40.5517 41.1035C38.3103 41.2069 37.931 41.3104 36.5517 42.4828C32.2759 45.9655 26.1724 47.3793 20.7931 46.069ZM30.8965 41.2069C31.9655 40.6207 33 39.931 33.2069 39.6552C33.6897 38.8621 31.5862 34.7586 29.5862 32.5517C28.6552 31.5862 27.931 30.6897 27.931 30.5862C27.931 30.4828 28.5172 30.6207 29.2414 30.931C30.6207 31.5173 35.9655 31.7586 37.6897 31.2759C38.5862 31.0345 38.6207 30.931 38.6207 28.8621C38.6207 24.3793 36.3793 20.3104 32.4138 17.6552L30.2069 16.1379L29.2414 17.3104C27.9655 18.8276 25.5172 23.6552 25.5172 24.6897C25.5172 25.1035 25.3793 25.5862 25.1724 25.6897C24.9655 25.8276 24.8276 25.4828 24.8276 24.931C24.8276 23.7241 23.1034 20.0345 21.5172 17.8621L20.2759 16.2069L18.5862 17.1379C15.1379 19 12.4828 22.7931 11.7241 26.8621C11.2759 29.4138 11.5172 30.931 12.4483 31.2069C12.8276 31.3448 14.4828 31.4483 16.1379 31.4138C18.8965 31.4138 20 31.2414 21.8965 30.4828C22.3103 30.3104 21.8276 31.0345 20.7586 32.2414C19.1034 34.069 17.3448 36.931 16.7586 38.8621C16.5517 39.4828 16.7931 39.7586 18.1034 40.5173C20.6552 42.0345 22.2759 42.4138 25.7586 42.3104C28.4483 42.2414 29.1724 42.069 30.8965 41.2069Z" fill="#060606"/>
</svg>
