<svg width="50" height="50" viewBox="0 0 50 50" fill="none" xmlns="http://www.w3.org/2000/svg">
<path d="M20.1667 49.2C14.9 48.1333 11.1 46.1333 7.33332 42.3333C4.13332 39.1333 2.39999 36.4 1.09999 32.5C0.266657 30.1 0.19999 29.3667 0.166656 24.8333C0.166656 20.4667 0.266657 19.5333 0.933323 17.5C3.69999 9.26665 9.43332 3.53332 17.5 0.999985C21.0667 -0.133348 26.6333 -0.266681 30.4333 0.633319C44.9 4.09999 52.9667 18.8667 48.1333 33.0667C45.5667 40.6667 38.8667 46.8333 31.0667 48.8333C28.1 49.5667 23 49.7667 20.1667 49.2ZM23.1667 44.1C22.8333 42.7333 20.8667 38.6 20.1 37.7L19.4667 36.9L17.4667 37.5C15.2 38.1333 11.6667 39.6667 11.6667 39.9667C11.6667 40.1 12.6 40.8 13.7667 41.5667C15.8 42.9 18.6 44.0667 21.1667 44.6333C23.3333 45.1333 23.4333 45.1 23.1667 44.1ZM30.6667 44C32.7333 43.4 36.2667 41.5333 37.3333 40.4667C37.7667 40.0333 37.7667 39.9333 37.3333 39.6667C36.0667 38.8667 31.8667 37.3 30.8 37.2333C29.6333 37.1667 29.5333 37.2667 28.4667 39.1667C27.8333 40.2667 27.0333 42.0333 26.7 43.1L26.0333 45.0333L27.2667 44.8333C27.9333 44.7 29.4667 44.3333 30.6667 44ZM11.2667 34.2C13 29.3667 13.1667 29.9333 9.26666 28C4.36666 25.6333 4.19999 25.7 5.16666 29.5C5.83332 32.0333 6.99999 34.6 8.39999 36.5333C9.69999 38.3667 9.83332 38.2667 11.2667 34.2ZM42.8333 33.5C43.8 31.4667 44.1 30.3667 44.8667 26.7667L45 26L42.9 26.8C40.6 27.6667 38.5333 28.6667 37.5333 29.4333C36.9667 29.8667 36.9333 30.0333 37.3 31.5333C37.5333 32.4333 38.1667 34.2667 38.7333 35.6333L39.7667 38.1333L40.7333 36.9667C41.2667 36.3333 42.2 34.8 42.8333 33.5ZM26.8333 31.6333C27.6667 31.4 28.7667 30.6667 29.7 29.7C32.3333 27.1 32.6333 23.8667 30.5667 20.7667C26.6667 15.0333 17.6333 17.8 17.6667 24.7333C17.6667 26.9667 18.5667 28.9667 20.1333 30.2C22.2333 31.9 24.3 32.3333 26.8333 31.6333ZM7.99999 22.2C8.99999 21.7667 10.4667 21.0667 11.2333 20.5667L12.6 19.7L12.1 17.7667C11.8333 16.7333 11.1667 14.8667 10.6 13.6667L9.63332 11.5L8.79999 12.5C6.93332 14.7333 4.66666 20.3333 4.66666 22.6667C4.66666 23.4667 4.86666 23.4333 7.99999 22.2ZM44.6333 21.6333C44.3 19.6 43.8 17.9667 42.9333 16.1667C42.1667 14.5667 40.2333 11.6667 39.9667 11.6667C39.5 11.6667 37 18.1333 37 19.3667C37 19.9333 40.3333 21.8667 42.9 22.8333C44.9 23.5667 44.9333 23.5333 44.6333 21.6333ZM20.7 10.9667C21.7667 9.09999 23.4333 4.99999 23.2 4.76665C22.4667 3.99999 14.8333 6.86665 12.5 8.76665L11.5333 9.56665L13 10.3333C14.7333 11.2333 19 12.6667 19.5 12.5333C19.6667 12.5 20.2 11.7667 20.7 10.9667ZM33 11.7333C33.8333 11.4667 35.3333 10.9 36.3 10.4333L38.1333 9.63332L36.4667 8.46665C33.8333 6.53332 29 4.66665 26.7 4.66665C26 4.66665 26 4.66665 26.8333 6.86665C27.2667 8.06665 28.1333 9.83332 28.7333 10.8333C29.9333 12.8333 29.8 12.8 33 11.7333Z" fill="black"/>
</svg>
